<mxfile host="www.draw.io" modified="2020-02-14T16:39:59.086Z" agent="Mozilla/5.0 (Windows NT 10.0; Win64; x64) AppleWebKit/537.36 (KHTML, like Gecko) Chrome/79.0.3945.130 Safari/537.36" etag="YB05bXatyRsdEDcTCYIC" version="12.7.0" type="github">
  <diagram id="adodtcI2h1c6EPinIs3A" name="Page-1">
    <mxGraphModel dx="868" dy="450" grid="1" gridSize="10" guides="1" tooltips="1" connect="1" arrows="1" fold="1" page="1" pageScale="1" pageWidth="827" pageHeight="1169" math="0" shadow="0">
      <root>
        <mxCell id="0"/>
        <mxCell id="1" parent="0"/>
        <mxCell id="8EcQHJpTXaGvdvUy0V6i-5" value="Aluno" style="swimlane;fontStyle=1;align=center;verticalAlign=top;childLayout=stackLayout;horizontal=1;startSize=26;horizontalStack=0;resizeParent=1;resizeParentMax=0;resizeLast=0;collapsible=1;marginBottom=0;" vertex="1" parent="1">
          <mxGeometry x="710" y="20" width="160" height="138" as="geometry"/>
        </mxCell>
        <mxCell id="8EcQHJpTXaGvdvUy0V6i-6" value="- nome: String" style="text;strokeColor=none;fillColor=none;align=left;verticalAlign=top;spacingLeft=4;spacingRight=4;overflow=hidden;rotatable=0;points=[[0,0.5],[1,0.5]];portConstraint=eastwest;" vertex="1" parent="8EcQHJpTXaGvdvUy0V6i-5">
          <mxGeometry y="26" width="160" height="26" as="geometry"/>
        </mxCell>
        <mxCell id="8EcQHJpTXaGvdvUy0V6i-9" value="- sobrenome: String" style="text;strokeColor=none;fillColor=none;align=left;verticalAlign=top;spacingLeft=4;spacingRight=4;overflow=hidden;rotatable=0;points=[[0,0.5],[1,0.5]];portConstraint=eastwest;" vertex="1" parent="8EcQHJpTXaGvdvUy0V6i-5">
          <mxGeometry y="52" width="160" height="26" as="geometry"/>
        </mxCell>
        <mxCell id="8EcQHJpTXaGvdvUy0V6i-10" value="- codigo: Integer" style="text;strokeColor=none;fillColor=none;align=left;verticalAlign=top;spacingLeft=4;spacingRight=4;overflow=hidden;rotatable=0;points=[[0,0.5],[1,0.5]];portConstraint=eastwest;" vertex="1" parent="8EcQHJpTXaGvdvUy0V6i-5">
          <mxGeometry y="78" width="160" height="26" as="geometry"/>
        </mxCell>
        <mxCell id="8EcQHJpTXaGvdvUy0V6i-7" value="" style="line;strokeWidth=1;fillColor=none;align=left;verticalAlign=middle;spacingTop=-1;spacingLeft=3;spacingRight=3;rotatable=0;labelPosition=right;points=[];portConstraint=eastwest;" vertex="1" parent="8EcQHJpTXaGvdvUy0V6i-5">
          <mxGeometry y="104" width="160" height="8" as="geometry"/>
        </mxCell>
        <mxCell id="8EcQHJpTXaGvdvUy0V6i-8" value="+ method(type): type" style="text;strokeColor=none;fillColor=none;align=left;verticalAlign=top;spacingLeft=4;spacingRight=4;overflow=hidden;rotatable=0;points=[[0,0.5],[1,0.5]];portConstraint=eastwest;" vertex="1" parent="8EcQHJpTXaGvdvUy0V6i-5">
          <mxGeometry y="112" width="160" height="26" as="geometry"/>
        </mxCell>
        <mxCell id="8EcQHJpTXaGvdvUy0V6i-11" value="Curso" style="swimlane;fontStyle=1;align=center;verticalAlign=top;childLayout=stackLayout;horizontal=1;startSize=26;horizontalStack=0;resizeParent=1;resizeParentMax=0;resizeLast=0;collapsible=1;marginBottom=0;" vertex="1" parent="1">
          <mxGeometry x="250" y="330" width="230" height="216" as="geometry"/>
        </mxCell>
        <mxCell id="8EcQHJpTXaGvdvUy0V6i-12" value="- nome: String" style="text;strokeColor=none;fillColor=none;align=left;verticalAlign=top;spacingLeft=4;spacingRight=4;overflow=hidden;rotatable=0;points=[[0,0.5],[1,0.5]];portConstraint=eastwest;" vertex="1" parent="8EcQHJpTXaGvdvUy0V6i-11">
          <mxGeometry y="26" width="230" height="26" as="geometry"/>
        </mxCell>
        <mxCell id="8EcQHJpTXaGvdvUy0V6i-15" value="- codigo: Integer" style="text;strokeColor=none;fillColor=none;align=left;verticalAlign=top;spacingLeft=4;spacingRight=4;overflow=hidden;rotatable=0;points=[[0,0.5],[1,0.5]];portConstraint=eastwest;" vertex="1" parent="8EcQHJpTXaGvdvUy0V6i-11">
          <mxGeometry y="52" width="230" height="26" as="geometry"/>
        </mxCell>
        <mxCell id="8EcQHJpTXaGvdvUy0V6i-34" value="- professorTitular: ProfessorTItular" style="text;strokeColor=none;fillColor=none;align=left;verticalAlign=top;spacingLeft=4;spacingRight=4;overflow=hidden;rotatable=0;points=[[0,0.5],[1,0.5]];portConstraint=eastwest;" vertex="1" parent="8EcQHJpTXaGvdvUy0V6i-11">
          <mxGeometry y="78" width="230" height="26" as="geometry"/>
        </mxCell>
        <mxCell id="8EcQHJpTXaGvdvUy0V6i-35" value="- professorAdjunto: ProfessorAdjunto" style="text;strokeColor=none;fillColor=none;align=left;verticalAlign=top;spacingLeft=4;spacingRight=4;overflow=hidden;rotatable=0;points=[[0,0.5],[1,0.5]];portConstraint=eastwest;" vertex="1" parent="8EcQHJpTXaGvdvUy0V6i-11">
          <mxGeometry y="104" width="230" height="26" as="geometry"/>
        </mxCell>
        <mxCell id="8EcQHJpTXaGvdvUy0V6i-36" value="- qtdMaxAlunos: Integer" style="text;strokeColor=none;fillColor=none;align=left;verticalAlign=top;spacingLeft=4;spacingRight=4;overflow=hidden;rotatable=0;points=[[0,0.5],[1,0.5]];portConstraint=eastwest;" vertex="1" parent="8EcQHJpTXaGvdvUy0V6i-11">
          <mxGeometry y="130" width="230" height="26" as="geometry"/>
        </mxCell>
        <mxCell id="8EcQHJpTXaGvdvUy0V6i-37" value="- listaAlunosMatriculados: List&lt;Aluno&gt;" style="text;strokeColor=none;fillColor=none;align=left;verticalAlign=top;spacingLeft=4;spacingRight=4;overflow=hidden;rotatable=0;points=[[0,0.5],[1,0.5]];portConstraint=eastwest;" vertex="1" parent="8EcQHJpTXaGvdvUy0V6i-11">
          <mxGeometry y="156" width="230" height="26" as="geometry"/>
        </mxCell>
        <mxCell id="8EcQHJpTXaGvdvUy0V6i-13" value="" style="line;strokeWidth=1;fillColor=none;align=left;verticalAlign=middle;spacingTop=-1;spacingLeft=3;spacingRight=3;rotatable=0;labelPosition=right;points=[];portConstraint=eastwest;" vertex="1" parent="8EcQHJpTXaGvdvUy0V6i-11">
          <mxGeometry y="182" width="230" height="8" as="geometry"/>
        </mxCell>
        <mxCell id="8EcQHJpTXaGvdvUy0V6i-14" value="+ method(type): type" style="text;strokeColor=none;fillColor=none;align=left;verticalAlign=top;spacingLeft=4;spacingRight=4;overflow=hidden;rotatable=0;points=[[0,0.5],[1,0.5]];portConstraint=eastwest;" vertex="1" parent="8EcQHJpTXaGvdvUy0V6i-11">
          <mxGeometry y="190" width="230" height="26" as="geometry"/>
        </mxCell>
        <mxCell id="8EcQHJpTXaGvdvUy0V6i-16" value="Professor" style="swimlane;fontStyle=3;align=center;verticalAlign=top;childLayout=stackLayout;horizontal=1;startSize=26;horizontalStack=0;resizeParent=1;resizeParentMax=0;resizeLast=0;collapsible=1;marginBottom=0;" vertex="1" parent="1">
          <mxGeometry x="260" y="30" width="160" height="138" as="geometry"/>
        </mxCell>
        <mxCell id="8EcQHJpTXaGvdvUy0V6i-17" value="- nome: String" style="text;strokeColor=none;fillColor=none;align=left;verticalAlign=top;spacingLeft=4;spacingRight=4;overflow=hidden;rotatable=0;points=[[0,0.5],[1,0.5]];portConstraint=eastwest;" vertex="1" parent="8EcQHJpTXaGvdvUy0V6i-16">
          <mxGeometry y="26" width="160" height="26" as="geometry"/>
        </mxCell>
        <mxCell id="8EcQHJpTXaGvdvUy0V6i-20" value="- sobrenome: String" style="text;strokeColor=none;fillColor=none;align=left;verticalAlign=top;spacingLeft=4;spacingRight=4;overflow=hidden;rotatable=0;points=[[0,0.5],[1,0.5]];portConstraint=eastwest;" vertex="1" parent="8EcQHJpTXaGvdvUy0V6i-16">
          <mxGeometry y="52" width="160" height="26" as="geometry"/>
        </mxCell>
        <mxCell id="8EcQHJpTXaGvdvUy0V6i-21" value="- tempoDeCasa: Integer" style="text;strokeColor=none;fillColor=none;align=left;verticalAlign=top;spacingLeft=4;spacingRight=4;overflow=hidden;rotatable=0;points=[[0,0.5],[1,0.5]];portConstraint=eastwest;" vertex="1" parent="8EcQHJpTXaGvdvUy0V6i-16">
          <mxGeometry y="78" width="160" height="26" as="geometry"/>
        </mxCell>
        <mxCell id="8EcQHJpTXaGvdvUy0V6i-18" value="" style="line;strokeWidth=1;fillColor=none;align=left;verticalAlign=middle;spacingTop=-1;spacingLeft=3;spacingRight=3;rotatable=0;labelPosition=right;points=[];portConstraint=eastwest;" vertex="1" parent="8EcQHJpTXaGvdvUy0V6i-16">
          <mxGeometry y="104" width="160" height="8" as="geometry"/>
        </mxCell>
        <mxCell id="8EcQHJpTXaGvdvUy0V6i-19" value="+ method(type): type" style="text;strokeColor=none;fillColor=none;align=left;verticalAlign=top;spacingLeft=4;spacingRight=4;overflow=hidden;rotatable=0;points=[[0,0.5],[1,0.5]];portConstraint=eastwest;" vertex="1" parent="8EcQHJpTXaGvdvUy0V6i-16">
          <mxGeometry y="112" width="160" height="26" as="geometry"/>
        </mxCell>
        <mxCell id="8EcQHJpTXaGvdvUy0V6i-31" style="edgeStyle=orthogonalEdgeStyle;rounded=0;orthogonalLoop=1;jettySize=auto;html=1;exitX=0.5;exitY=0;exitDx=0;exitDy=0;entryX=0;entryY=0.5;entryDx=0;entryDy=0;endArrow=blockThin;endFill=0;strokeWidth=1;jumpSize=6;endSize=10;" edge="1" parent="1" source="8EcQHJpTXaGvdvUy0V6i-22" target="8EcQHJpTXaGvdvUy0V6i-20">
          <mxGeometry relative="1" as="geometry"/>
        </mxCell>
        <mxCell id="8EcQHJpTXaGvdvUy0V6i-22" value="ProfessorTitular" style="swimlane;fontStyle=1;align=center;verticalAlign=top;childLayout=stackLayout;horizontal=1;startSize=26;horizontalStack=0;resizeParent=1;resizeParentMax=0;resizeLast=0;collapsible=1;marginBottom=0;" vertex="1" parent="1">
          <mxGeometry x="150" y="200" width="160" height="86" as="geometry"/>
        </mxCell>
        <mxCell id="8EcQHJpTXaGvdvUy0V6i-23" value="- especialidade: String" style="text;strokeColor=none;fillColor=none;align=left;verticalAlign=top;spacingLeft=4;spacingRight=4;overflow=hidden;rotatable=0;points=[[0,0.5],[1,0.5]];portConstraint=eastwest;" vertex="1" parent="8EcQHJpTXaGvdvUy0V6i-22">
          <mxGeometry y="26" width="160" height="26" as="geometry"/>
        </mxCell>
        <mxCell id="8EcQHJpTXaGvdvUy0V6i-24" value="" style="line;strokeWidth=1;fillColor=none;align=left;verticalAlign=middle;spacingTop=-1;spacingLeft=3;spacingRight=3;rotatable=0;labelPosition=right;points=[];portConstraint=eastwest;" vertex="1" parent="8EcQHJpTXaGvdvUy0V6i-22">
          <mxGeometry y="52" width="160" height="8" as="geometry"/>
        </mxCell>
        <mxCell id="8EcQHJpTXaGvdvUy0V6i-25" value="+ method(type): type" style="text;strokeColor=none;fillColor=none;align=left;verticalAlign=top;spacingLeft=4;spacingRight=4;overflow=hidden;rotatable=0;points=[[0,0.5],[1,0.5]];portConstraint=eastwest;" vertex="1" parent="8EcQHJpTXaGvdvUy0V6i-22">
          <mxGeometry y="60" width="160" height="26" as="geometry"/>
        </mxCell>
        <mxCell id="8EcQHJpTXaGvdvUy0V6i-32" style="edgeStyle=orthogonalEdgeStyle;rounded=0;jumpSize=6;orthogonalLoop=1;jettySize=auto;html=1;exitX=0.5;exitY=0;exitDx=0;exitDy=0;entryX=1;entryY=0.5;entryDx=0;entryDy=0;endArrow=blockThin;endFill=0;endSize=10;strokeWidth=1;" edge="1" parent="1" source="8EcQHJpTXaGvdvUy0V6i-26" target="8EcQHJpTXaGvdvUy0V6i-20">
          <mxGeometry relative="1" as="geometry">
            <Array as="points">
              <mxPoint x="440" y="95"/>
            </Array>
          </mxGeometry>
        </mxCell>
        <mxCell id="8EcQHJpTXaGvdvUy0V6i-26" value="ProfessorAdjunto" style="swimlane;fontStyle=1;align=center;verticalAlign=top;childLayout=stackLayout;horizontal=1;startSize=26;horizontalStack=0;resizeParent=1;resizeParentMax=0;resizeLast=0;collapsible=1;marginBottom=0;" vertex="1" parent="1">
          <mxGeometry x="360" y="200" width="160" height="86" as="geometry"/>
        </mxCell>
        <mxCell id="8EcQHJpTXaGvdvUy0V6i-27" value="- quantidadeHoras: Integer" style="text;strokeColor=none;fillColor=none;align=left;verticalAlign=top;spacingLeft=4;spacingRight=4;overflow=hidden;rotatable=0;points=[[0,0.5],[1,0.5]];portConstraint=eastwest;" vertex="1" parent="8EcQHJpTXaGvdvUy0V6i-26">
          <mxGeometry y="26" width="160" height="26" as="geometry"/>
        </mxCell>
        <mxCell id="8EcQHJpTXaGvdvUy0V6i-28" value="" style="line;strokeWidth=1;fillColor=none;align=left;verticalAlign=middle;spacingTop=-1;spacingLeft=3;spacingRight=3;rotatable=0;labelPosition=right;points=[];portConstraint=eastwest;" vertex="1" parent="8EcQHJpTXaGvdvUy0V6i-26">
          <mxGeometry y="52" width="160" height="8" as="geometry"/>
        </mxCell>
        <mxCell id="8EcQHJpTXaGvdvUy0V6i-29" value="+ method(type): type" style="text;strokeColor=none;fillColor=none;align=left;verticalAlign=top;spacingLeft=4;spacingRight=4;overflow=hidden;rotatable=0;points=[[0,0.5],[1,0.5]];portConstraint=eastwest;" vertex="1" parent="8EcQHJpTXaGvdvUy0V6i-26">
          <mxGeometry y="60" width="160" height="26" as="geometry"/>
        </mxCell>
        <mxCell id="8EcQHJpTXaGvdvUy0V6i-38" value="Matricula" style="swimlane;fontStyle=1;align=center;verticalAlign=top;childLayout=stackLayout;horizontal=1;startSize=26;horizontalStack=0;resizeParent=1;resizeParentMax=0;resizeLast=0;collapsible=1;marginBottom=0;" vertex="1" parent="1">
          <mxGeometry x="480" y="20" width="160" height="138" as="geometry"/>
        </mxCell>
        <mxCell id="8EcQHJpTXaGvdvUy0V6i-39" value="- aluno: Aluno" style="text;strokeColor=none;fillColor=none;align=left;verticalAlign=top;spacingLeft=4;spacingRight=4;overflow=hidden;rotatable=0;points=[[0,0.5],[1,0.5]];portConstraint=eastwest;" vertex="1" parent="8EcQHJpTXaGvdvUy0V6i-38">
          <mxGeometry y="26" width="160" height="26" as="geometry"/>
        </mxCell>
        <mxCell id="8EcQHJpTXaGvdvUy0V6i-52" value="- curso: Curso" style="text;strokeColor=none;fillColor=none;align=left;verticalAlign=top;spacingLeft=4;spacingRight=4;overflow=hidden;rotatable=0;points=[[0,0.5],[1,0.5]];portConstraint=eastwest;" vertex="1" parent="8EcQHJpTXaGvdvUy0V6i-38">
          <mxGeometry y="52" width="160" height="26" as="geometry"/>
        </mxCell>
        <mxCell id="8EcQHJpTXaGvdvUy0V6i-54" value="- dataMatricula: Date" style="text;strokeColor=none;fillColor=none;align=left;verticalAlign=top;spacingLeft=4;spacingRight=4;overflow=hidden;rotatable=0;points=[[0,0.5],[1,0.5]];portConstraint=eastwest;" vertex="1" parent="8EcQHJpTXaGvdvUy0V6i-38">
          <mxGeometry y="78" width="160" height="26" as="geometry"/>
        </mxCell>
        <mxCell id="8EcQHJpTXaGvdvUy0V6i-40" value="" style="line;strokeWidth=1;fillColor=none;align=left;verticalAlign=middle;spacingTop=-1;spacingLeft=3;spacingRight=3;rotatable=0;labelPosition=right;points=[];portConstraint=eastwest;" vertex="1" parent="8EcQHJpTXaGvdvUy0V6i-38">
          <mxGeometry y="104" width="160" height="8" as="geometry"/>
        </mxCell>
        <mxCell id="8EcQHJpTXaGvdvUy0V6i-41" value="+ method(type): type" style="text;strokeColor=none;fillColor=none;align=left;verticalAlign=top;spacingLeft=4;spacingRight=4;overflow=hidden;rotatable=0;points=[[0,0.5],[1,0.5]];portConstraint=eastwest;" vertex="1" parent="8EcQHJpTXaGvdvUy0V6i-38">
          <mxGeometry y="112" width="160" height="26" as="geometry"/>
        </mxCell>
        <mxCell id="8EcQHJpTXaGvdvUy0V6i-49" style="edgeStyle=orthogonalEdgeStyle;rounded=0;jumpSize=6;orthogonalLoop=1;jettySize=auto;html=1;exitX=0;exitY=0.5;exitDx=0;exitDy=0;endArrow=diamondThin;endFill=0;endSize=10;strokeWidth=1;" edge="1" parent="1" source="8EcQHJpTXaGvdvUy0V6i-23" target="8EcQHJpTXaGvdvUy0V6i-35">
          <mxGeometry relative="1" as="geometry"/>
        </mxCell>
        <mxCell id="8EcQHJpTXaGvdvUy0V6i-51" style="edgeStyle=orthogonalEdgeStyle;rounded=0;jumpSize=6;orthogonalLoop=1;jettySize=auto;html=1;exitX=1;exitY=0.5;exitDx=0;exitDy=0;entryX=1;entryY=0.5;entryDx=0;entryDy=0;endArrow=diamondThin;endFill=0;endSize=10;strokeWidth=1;" edge="1" parent="1" source="8EcQHJpTXaGvdvUy0V6i-27" target="8EcQHJpTXaGvdvUy0V6i-35">
          <mxGeometry relative="1" as="geometry"/>
        </mxCell>
        <mxCell id="8EcQHJpTXaGvdvUy0V6i-57" style="edgeStyle=orthogonalEdgeStyle;rounded=0;jumpSize=6;orthogonalLoop=1;jettySize=auto;html=1;exitX=0;exitY=0.5;exitDx=0;exitDy=0;entryX=1;entryY=0.5;entryDx=0;entryDy=0;endArrow=diamondThin;endFill=0;endSize=10;strokeWidth=1;" edge="1" parent="1" source="8EcQHJpTXaGvdvUy0V6i-9" target="8EcQHJpTXaGvdvUy0V6i-52">
          <mxGeometry relative="1" as="geometry"/>
        </mxCell>
        <mxCell id="8EcQHJpTXaGvdvUy0V6i-59" style="edgeStyle=orthogonalEdgeStyle;rounded=0;jumpSize=6;orthogonalLoop=1;jettySize=auto;html=1;exitX=1;exitY=0.5;exitDx=0;exitDy=0;entryX=0.994;entryY=0.077;entryDx=0;entryDy=0;entryPerimeter=0;endArrow=diamondThin;endFill=0;endSize=10;strokeWidth=1;" edge="1" parent="1" source="8EcQHJpTXaGvdvUy0V6i-36" target="8EcQHJpTXaGvdvUy0V6i-41">
          <mxGeometry relative="1" as="geometry"/>
        </mxCell>
      </root>
    </mxGraphModel>
  </diagram>
</mxfile>
